<svg version="1.2" xmlns="http://www.w3.org/2000/svg" viewBox="0 0 24 24" width="24" height="24">
	<title>healthcare</title>
	<defs>
		<clipPath clipPathUnits="userSpaceOnUse" id="cp1">
			<path d="m3.8 16.64l-0.22-0.35q-0.08-0.12-0.08-0.27v-2.77c0-0.69-0.56-1.25-1.25-1.25-0.69 0-1.25 0.56-1.25 1.25v4.55q0 0.45 0.25 0.83l2.25 3.37m4.72 0v-2.58c0-0.49-0.14-0.97-0.42-1.38l-1.01-1.52c-0.44-0.66-1.33-0.86-2.02-0.45l-0.97 0.57zm12.5 0l2.06-3.4q0.21-0.35 0.22-0.77v-4.58c0-0.69-0.56-1.25-1.25-1.25-0.69 0-1.25 0.56-1.25 1.25v2.77q0 0.14-0.08 0.27h-0.01zm-0.3-5.7l-0.97-0.56c-0.69-0.41-1.58-0.21-2.02 0.45l-1.01 1.52c-0.27 0.41-0.42 0.89-0.42 1.38v2.91zm-9.42-14.29c-0.55 0-1 0.44-1 1v2.9q0 0.09-0.1 0.1h-2.9c-0.55 0-1 0.44-1 1v2c0 0.55 0.45 1 1 1h2.9q0.1 0 0.1 0.1v2.9c0 0.55 0.45 1 1 1h2c0.56 0 1-0.45 1-1v-2.9q0.01-0.1 0.1-0.1h2.9c0.56 0 1-0.45 1-1v-2c0-0.56-0.44-1-1-1h-2.9q-0.09-0.01-0.1-0.1v-2.9c0-0.56-0.44-1-1-1zm-5.55 17.22l-1.65-2.59m14.76 2.59l1.86-2.93"/>
		</clipPath>
	</defs>
	<style>
		.s0 { fill: #ffffff;stroke: #000000;stroke-linecap: round;stroke-width: 1.5 } 
	</style>
	<g clip-path="url(#cp1)">
		<path fill-rule="evenodd" class="s0" d="m3.8 16.6l-0.2-0.3q-0.1-0.1-0.1-0.3v-2.8c0-0.6-0.6-1.2-1.2-1.2-0.7 0-1.3 0.6-1.3 1.2v4.6q0 0.4 0.3 0.8l2.2 3.4m4.7 0v-2.6c0-0.5-0.1-1-0.4-1.4l-1-1.5c-0.5-0.6-1.3-0.8-2-0.4l-1 0.5zm12.5 0l2.1-3.4q0.2-0.3 0.2-0.7v-4.6c0-0.7-0.6-1.3-1.3-1.3-0.7 0-1.2 0.6-1.2 1.3v2.8q0 0.1-0.1 0.2zm-0.3-5.7l-1-0.5c-0.7-0.4-1.6-0.2-2 0.4l-1 1.5c-0.3 0.4-0.4 0.9-0.4 1.4v2.9zm-9.4-14.3c-0.6 0-1 0.5-1 1v2.9q-0.1 0.1-0.1 0.1h-2.9c-0.6 0-1 0.5-1 1v2c0 0.6 0.4 1 1 1h2.9q0 0 0.1 0.1v2.9c0 0.6 0.4 1 1 1h2c0.5 0 1-0.4 1-1v-2.9q0-0.1 0.1-0.1h2.9c0.5 0 1-0.4 1-1v-2c0-0.5-0.5-1-1-1h-2.9q-0.1 0-0.1-0.1v-2.9c0-0.5-0.5-1-1-1zm-5.6 17.3l-1.6-2.6m14.7 2.6l1.9-3"/>
		<rect width="24" height="24" id="Color Fill 1" style="fill: #ffffff"/>
	</g>
</svg>